# xmcd
# 
# Track frame offsets:
#     150
#     17303
#     34378
#     51193
#     68055
#     84738
#     101519
#     118348
#     135117
#     151045
#     167062
#     184249
#     201513
#     215840
#     230148
#     244832
#     259661
#     275687
#     292601
#     309645
#     326757
# 
# Disc length: 4373
# 
# Revision: 2
# Processed by: cddbd v1.5.2PL0 Copyright (c) Steve Scherf et al.
# Submitted via: fre:ac v1.0.31
# 
DISCID=34111315
DTITLE=HAL - Blues Best (Bb and Eb)
DYEAR=0
DGENRE=Jazz
TTITLE0=Basin Street Blues (Split)
TTITLE1=Basin Street Blues (Stereo)
TTITLE2=Bloomdido (Split)
TTITLE3=Bloomdido (Stereo)
TTITLE4=D Natural Blues (Split)
TTITLE5=D Natural Blues (Stereo)
TTITLE6=Everyday I Have The Blues (Split)
TTITLE7=Everyday I Have The Blues (Stereo)
TTITLE8=Happy Go Lucky Local (Split)
TTITLE9=Happy Go Lucky Local (Stereo)
TTITLE10=Sonnymoon For Two (Split)
TTITLE11=Sonnymoon For Two (Stereo)
TTITLE12=The Swingin' Shepherd Blues (Split)
TTITLE13=The Swingin' Shepherd Blues (Stereo)
TTITLE14=Take The Coltrane (Split)
TTITLE15=Take The Coltrane (Stereo)
TTITLE16=Turnaround (Split)
TTITLE17=Turnaround (Stereo)
TTITLE18=Twisted (Split)
TTITLE19=Twisted (Stereo)
TTITLE20=Bb Tuning Notes
EXTD=
EXTT0=
EXTT1=
EXTT2=
EXTT3=
EXTT4=
EXTT5=
EXTT6=
EXTT7=
EXTT8=
EXTT9=
EXTT10=
EXTT11=
EXTT12=
EXTT13=
EXTT14=
EXTT15=
EXTT16=
EXTT17=
EXTT18=
EXTT19=
EXTT20=
PLAYORDER=
